<svg width="15" height="15" viewBox="0 0 15 15" fill="none" xmlns="http://www.w3.org/2000/svg">
<path d="M10.5608 0.901364V0.9H10.4608H4.51147C2.51998 0.9 0.9 2.51998 0.9 4.51147V10.4609C0.9 12.4523 2.51999 14.0722 4.51147 14.0722H10.4609C12.4523 14.0722 14.0722 12.4523 14.0722 10.4609V4.51147C14.0722 2.55342 12.5062 0.954509 10.5608 0.901364ZM13.1118 10.4609C13.1118 11.9225 11.9225 13.1118 10.4608 13.1118H4.51147C3.04978 13.1118 1.86049 11.9225 1.86049 10.4609V4.51147C1.86049 3.04978 3.04978 1.86049 4.51147 1.86049H10.4609C11.9225 1.86049 13.1118 3.04978 13.1118 4.51147V10.4609Z" fill="#181818" stroke="#181818" stroke-width="0.2"/>
<path d="M7.48645 3.83945C5.47537 3.83945 3.83945 5.47537 3.83945 7.48645C3.83945 9.49753 5.47537 11.1335 7.48645 11.1335C9.49753 11.1335 11.1335 9.49753 11.1335 7.48645C11.1335 5.47537 9.49753 3.83945 7.48645 3.83945ZM7.48645 10.173C6.00526 10.173 4.79994 8.96774 4.79994 7.48645C4.79994 6.00526 6.00526 4.79994 7.48645 4.79994C8.96774 4.79994 10.173 6.00526 10.173 7.48645C10.173 8.96774 8.96774 10.173 7.48645 10.173Z" fill="#181818" stroke="#181818" stroke-width="0.2"/>
<path d="M11.1184 2.67969C10.5404 2.67969 10.0703 3.1499 10.0703 3.72778C10.0703 4.30577 10.5404 4.77598 11.1184 4.77598C11.6964 4.77598 12.1666 4.30577 12.1666 3.72778C12.1666 3.1498 11.6964 2.67969 11.1184 2.67969ZM11.1184 4.01539C10.9599 4.01539 10.8308 3.88633 10.8308 3.72778C10.8308 3.56913 10.9599 3.44018 11.1184 3.44018C11.2771 3.44018 11.4061 3.56913 11.4061 3.72778C11.4061 3.88633 11.2771 4.01539 11.1184 4.01539Z" fill="#181818"/>
</svg>
